<?xml version="1.0" encoding="utf-8"?>
<!-- Generator: Adobe Illustrator 25.0.1, SVG Export Plug-In . SVG Version: 6.00 Build 0)  -->
<svg version="1.0" id="katman_1" xmlns="http://www.w3.org/2000/svg" xmlns:xlink="http://www.w3.org/1999/xlink" x="0px" y="0px"
	 viewBox="0 0 800 600" style="enable-background:new 0 0 800 600;" xml:space="preserve">
<style type="text/css">
	.st0{fill:#F4C618;}
	.st1{fill:#1D1D1B;}
	.st2{fill:#1C1700;}
</style>
<path class="st0" d="M215,374.8c41,0,74.3-33.5,74.3-74.8c0-41.3-33.2-74.8-74.3-74.8c-41,0-74.3,33.5-74.3,74.8
	C140.8,341.3,174,374.8,215,374.8z"/>
<path class="st0" d="M215,384.2c46.1,0,83.6-37.7,83.6-84.2c0-46.5-37.4-84.2-83.6-84.2c-46.1,0-83.6,37.7-83.6,84.2
	C131.5,346.5,168.9,384.2,215,384.2z"/>
<path class="st0" d="M249.3,296.7l-0.1,0.3c-1.2,4.8-2.7,9.5-4.5,14c-0.7,1.7-1.4,3.4-2.2,5c-6.5,13.9-15.7,24.8-27.6,32.5
	c-11.9-7.7-21.2-18.6-27.6-32.5l-2.2-5c-1.8-4.7-3.3-9.5-4.5-14.4c-0.1-0.3-0.1-0.6-0.2-0.8c-0.3-1.5-0.6-2.8-0.9-4.2
	c-1.3-6.6-2.2-13.2-2.5-19.9c13.1-2.6,25.9-6.9,38-12.6c12.1,5.7,24.9,10,38,12.6c-0.4,6.7-1.2,13.3-2.5,19.9L249.3,296.7z"/>
<path class="st1" d="M233.9,293.4c0.6-2.7,1.1-5.5,1.5-8.3c-7-1.9-13.8-4.3-20.4-7.1c-6.6,2.9-13.5,5.2-20.4,7.1
	c0.4,2.8,0.9,5.6,1.5,8.3l0.2,0.9c0.3,1.2,0.6,2.3,0.9,3.4h47.3c0,0.1-0.1,0.2-0.1,0.3c-1,4.1-2.3,8.2-3.8,12.1
	c-0.6,1.5-1.2,2.9-1.9,4.4c-5.6,12-13.5,21.3-23.8,28c-10.3-6.6-18.2-16-23.8-28h12.8c2.9,5.1,6.6,9.7,11,13.6
	c4.4-3.9,8.1-8.5,11-13.7c0.8-1.4,1.6-2.8,2.3-4.4h-38.9c-1.6-4-2.9-8.2-3.9-12.4c-0.1-0.2-0.1-0.5-0.2-0.7
	c-0.3-1.2-0.6-2.4-0.8-3.6c-1.1-5.7-1.9-11.4-2.2-17.1c11.3-2.3,22.3-5.9,32.7-10.9c10.4,5,21.4,8.6,32.7,10.9
	c-0.3,5.8-1,11.5-2.2,17.1L233.9,293.4z"/>
<path class="st2" d="M215,242.6c2.1,0,3.9-1.7,3.9-3.9c0-2.1-1.7-3.9-3.9-3.9s-3.9,1.7-3.9,3.9C211.2,240.8,212.9,242.6,215,242.6z"
	/>
<path class="st2" d="M172,260.5c2.1,0,3.9-1.7,3.9-3.9c0-2.1-1.7-3.9-3.9-3.9c-2.1,0-3.9,1.7-3.9,3.9
	C168.1,258.8,169.9,260.5,172,260.5z"/>
<path class="st2" d="M154.2,303.9c2.1,0,3.9-1.7,3.9-3.9c0-2.1-1.7-3.9-3.9-3.9s-3.9,1.7-3.9,3.9C150.3,302.1,152,303.9,154.2,303.9
	z"/>
<path class="st2" d="M172,347.2c2.1,0,3.9-1.7,3.9-3.9s-1.7-3.9-3.9-3.9c-2.1,0-3.9,1.7-3.9,3.9S169.9,347.2,172,347.2z"/>
<path class="st2" d="M215,365.2c2.1,0,3.9-1.7,3.9-3.9c0-2.1-1.7-3.9-3.9-3.9s-3.9,1.7-3.9,3.9C211.2,363.4,212.9,365.2,215,365.2z"
	/>
<path class="st2" d="M258,347.2c2.1,0,3.9-1.7,3.9-3.9s-1.7-3.9-3.9-3.9c-2.1,0-3.9,1.7-3.9,3.9S255.9,347.2,258,347.2z"/>
<path class="st2" d="M275.9,303.9c2.1,0,3.9-1.7,3.9-3.9c0-2.1-1.7-3.9-3.9-3.9c-2.1,0-3.9,1.7-3.9,3.9
	C272,302.1,273.7,303.9,275.9,303.9z"/>
<path class="st2" d="M258,260.5c2.1,0,3.9-1.7,3.9-3.9c0-2.1-1.7-3.9-3.9-3.9c-2.1,0-3.9,1.7-3.9,3.9
	C254.2,258.8,255.9,260.5,258,260.5z"/>
<path class="st2" d="M246.2,300H272"/>
<path class="st2" d="M158,300h25.8"/>
<path class="st2" d="M215,262.4v-19.8"/>
<path class="st2" d="M215,357.4v-12.3"/>
<path class="st2" d="M187.1,271.9l-12.4-12.5"/>
<path class="st2" d="M255.3,340.6l-18.2-18.3"/>
<path class="st2" d="M242.9,271.9l12.4-12.5"/>
<path class="st2" d="M174.7,340.6l18-18.1"/>
<path class="st0" d="M215,217v6.6"/>
<path class="st0" d="M207.8,217.3l0.6,6.6"/>
<path class="st0" d="M200.7,218.3l1.1,6.5"/>
<path class="st0" d="M193.7,219.8l1.7,6.4"/>
<path class="st0" d="M186.8,222l2.2,6.2"/>
<path class="st0" d="M180.2,224.8l2.8,6"/>
<path class="st0" d="M173.8,228.1l3.3,5.7"/>
<path class="st0" d="M167.8,232l3.8,5.4"/>
<path class="st0" d="M162.1,236.4l4.2,5.1"/>
<path class="st0" d="M156.8,241.3l4.6,4.7"/>
<path class="st0" d="M151.9,246.6l5,4.3"/>
<path class="st0" d="M147.5,252.4l5.4,3.8"/>
<path class="st0" d="M143.7,258.5l5.7,3.3"/>
<path class="st0" d="M140.3,264.9l5.9,2.8"/>
<path class="st0" d="M137.6,271.6l6.2,2.3"/>
<path class="st0" d="M135.4,278.5l6.3,1.7"/>
<path class="st0" d="M133.9,285.6l6.5,1.2"/>
<path class="st0" d="M132.9,292.8l6.5,0.6"/>
<path class="st0" d="M132.6,300h6.6"/>
<path class="st0" d="M132.9,307.2l6.5-0.6"/>
<path class="st0" d="M133.9,314.4l6.5-1.1"/>
<path class="st0" d="M135.4,321.5l6.3-1.7"/>
<path class="st0" d="M137.6,328.4l6.2-2.3"/>
<path class="st0" d="M140.3,335.1l5.9-2.8"/>
<path class="st0" d="M143.7,341.5l5.7-3.3"/>
<path class="st0" d="M147.5,347.6l5.4-3.8"/>
<path class="st0" d="M151.9,353.3l5-4.2"/>
<path class="st0" d="M156.8,358.7l4.6-4.7"/>
<path class="st0" d="M162.1,363.6l4.2-5.1"/>
<path class="st0" d="M167.8,368l3.8-5.4"/>
<path class="st0" d="M173.8,371.9l3.3-5.7"/>
<path class="st0" d="M180.2,375.2l2.8-6"/>
<path class="st0" d="M186.8,378l2.2-6.2"/>
<path class="st0" d="M193.7,380.2l1.7-6.4"/>
<path class="st0" d="M200.7,381.7l1.1-6.5"/>
<path class="st0" d="M207.8,382.7l0.6-6.6"/>
<path class="st0" d="M215,383v-6.6"/>
<path class="st0" d="M222.2,382.7l-0.6-6.6"/>
<path class="st0" d="M229.3,381.7l-1.1-6.5"/>
<path class="st0" d="M236.3,380.2l-1.7-6.4"/>
<path class="st0" d="M243.2,378l-2.2-6.2"/>
<path class="st0" d="M249.8,375.2l-2.8-6"/>
<path class="st0" d="M256.2,371.9l-3.3-5.7"/>
<path class="st0" d="M262.3,368l-3.8-5.4"/>
<path class="st0" d="M268,363.6l-4.2-5.1"/>
<path class="st0" d="M273.3,358.7l-4.6-4.7"/>
<path class="st0" d="M278.1,353.3l-5-4.2"/>
<path class="st0" d="M282.5,347.6l-5.4-3.8"/>
<path class="st0" d="M286.4,341.5l-5.7-3.3"/>
<path class="st0" d="M289.7,335.1l-6-2.8"/>
<path class="st0" d="M292.4,328.4l-6.2-2.3"/>
<path class="st0" d="M294.6,321.5l-6.3-1.7"/>
<path class="st0" d="M296.2,314.4l-6.5-1.1"/>
<path class="st0" d="M297.1,307.2l-6.5-0.6"/>
<path class="st0" d="M297.4,300h-6.6"/>
<path class="st0" d="M297.1,292.8l-6.5,0.6"/>
<path class="st0" d="M296.2,285.6l-6.5,1.2"/>
<path class="st0" d="M294.6,278.5l-6.3,1.7"/>
<path class="st0" d="M292.4,271.6l-6.2,2.3"/>
<path class="st0" d="M289.7,264.9l-6,2.8"/>
<path class="st0" d="M286.4,258.5l-5.7,3.3"/>
<path class="st0" d="M282.5,252.4l-5.4,3.8"/>
<path class="st0" d="M278.1,246.6l-5,4.3"/>
<path class="st0" d="M273.3,241.3l-4.6,4.7"/>
<path class="st0" d="M268,236.4l-4.2,5.1"/>
<path class="st0" d="M262.3,232l-3.8,5.4"/>
<path class="st0" d="M256.2,228.1l-3.3,5.7"/>
<path class="st0" d="M249.8,224.8l-2.8,6"/>
<path class="st0" d="M243.2,222l-2.2,6.2"/>
<path class="st0" d="M236.3,219.8l-1.7,6.4"/>
<path class="st0" d="M229.3,218.3l-1.1,6.5"/>
<path class="st0" d="M222.2,217.3l-0.6,6.6"/>
<path class="st0" d="M359.7,347.2c19.2,0,32.5-10.5,32.5-27c0-13.9-9.3-21.5-24.2-28.6c-10.3-4.9-17.1-6.7-17.1-12.1
	c0-4.7,5-8.6,11.7-8.6c5,0,10.2,2.2,12.9,7.6l13.3-9.4c-4.1-10.9-14.2-16-26.4-16c-16.5,0-29.6,10.3-29.6,25.9
	c0,14.4,11.1,19.9,21.1,25c9.4,4.7,20.1,9.9,20.1,16.5c0,4.8-5.7,8.3-14.1,8.3c-7.7,0-13.5-2.9-17.4-9.3l-14.4,10.2
	C334.2,341,345.1,347.2,359.7,347.2z"/>
<path class="st0" d="M403.2,345.4h18v-90.3h-18V345.4z"/>
<path class="st0" d="M503.9,345.4L472,299.3l28.8-44.2H480l-25.2,39.1v-39.1h-18v90.3h18v-39.6l27.3,39.6H503.9z"/>
<path class="st0" d="M579.7,345.4l-31.9-46.1l28.8-44.2h-20.8l-25.2,39.1v-39.1h-18v90.3h18v-39.6l27.3,39.6H579.7z"/>
<path class="st0" d="M648.5,345.4H668l-42.9-92.6h-0.6l-42.8,92.6h19.5l5.7-12.6h35.9L648.5,345.4z M613.9,317.3l11-24.2l10.9,24.2
	H613.9z"/>
</svg>
